<?xml version="1.0" encoding="UTF-8" standalone="no"?>
<svg
   viewBox="0 0 2048 2048"
   version="1.1"
   id="svg18"
   sodipodi:docname="suews-logo-alt.svg"
   xmlns:inkscape="http://www.inkscape.org/namespaces/inkscape"
   xmlns:sodipodi="http://sodipodi.sourceforge.net/DTD/sodipodi-0.dtd"
   xmlns="http://www.w3.org/2000/svg"
   xmlns:svg="http://www.w3.org/2000/svg">
  <defs
     id="defs18" />
  <sodipodi:namedview
     id="namedview18"
     pagecolor="#ffffff"
     bordercolor="#000000"
     borderopacity="0.25"
     inkscape:showpageshadow="2"
     inkscape:pageopacity="0.0"
     inkscape:pagecheckerboard="0"
     inkscape:deskcolor="#d1d1d1" />
  <path
     fill="#f7b50a"
     d="M 620,236 C 855.44362,221.21331 1042.2914,493.71594 943.87347,708.51896 862.97102,917.81383 565.50268,996.48943 398.84998,840.49654 243.80907,713.6683 236.33782,454.5744 392.26594,324.7615 454.05285,269.06772 536.2935,234.66369 620,236 Z"
     id="path1" />
  <path
     fill="#09a25c"
     d="m 1754,1130 c 34.6923,149.9341 -29.1065,316.039 -122.542,435.1085 -128.0798,166.3806 -366.7782,211.1093 -554.6946,125.6953 -179.19781,-68.91 -351.89919,-225.9818 -556.82445,-154.4558 -80.02458,4.348 -264.25137,171.6142 -138.56294,22.1607 143.2095,-164.1189 391.84904,-134.081 557.3939,-22.7223 159.42759,104.2951 386.79089,188.0695 556.46509,58.469 109.9963,-78.9432 183.4013,-211.7032 190.5987,-345.7359 -125.0272,55.6983 -302.865,22.8763 -417.8337,122.4805 -82.0678,35.3984 -131.0187,229.1542 11.063,141.4685 108.4199,-30.9856 200.0653,-99.4141 291.8221,-162.2031 -85.5574,141.1623 -322.813,314.0853 -465.8658,212.2886 -18.5811,-156.9051 137.8812,-297.2434 282.4659,-325.6803 C 1522.5513,1233.0477 1641.4008,1181.9289 1754,1130 Z"
     id="path2" />
  <path
     fill="#066fab"
     d="m 1237,647 c 41.0827,153.89761 0.6483,315.80567 19.9626,472.8839 44.1304,79.9925 -96.1235,276.298 -75.9626,101.7234 0,-160.5358 0,-321.07155 0,-481.6073 -143.0723,41.99831 -206.28192,176.28107 -174.2259,312.5943 -87.71115,14.5187 -235.59832,-81.51061 -243.10173,87.943 -8.84336,73.3949 41.17301,365.9898 -72.06673,239.8298 13.0138,-95.3597 11.47884,-177.4746 -101.62983,-147.3671 -74.20864,-22.3746 -35.82406,67.844 -44.97581,110.5262 29.80867,130.7347 -124.42589,98.1454 -71.27814,-27.7949 -53.67017,-155.5934 93.39617,-168.9947 207.33168,-164.9631 C 668.1097,1021.3679 816.03216,908.01063 938.61021,957.55981 883.24009,808.28626 1048.3041,730.74925 1152.9871,674.0085 1176.3227,656.83705 1206.1838,632.43669 1237,647 Z"
     id="path3" />
  <path
     fill="#f8b507"
     d="M 614,367 C 803.80763,345.27132 918.39254,619.61972 766.20005,738.1445 628.7868,869.55996 370.31768,737.01551 414.30107,546.14449 430.25198,450.53011 514.05106,366.5334 614,367 Z"
     id="path4" />
  <path
     fill="#fcfcf3"
     d="M 614,310 C 823.29222,291.16544 976.61916,562.90866 847.25918,730.73239 741.71709,898.40835 461.93257,882.09397 382.25151,698.40865 290.76428,527.62596 422.36582,312.73764 614,310 Z m -30,61 C 384.18339,393.4209 349.27105,709.6985 540.48017,775.48402 713.29127,854.48369 914.91528,646.36024 811.15241,479.74986 768.70528,400.27187 673.77223,348.62333 584,371 Z"
     id="path5" />
  <path
     fill="#0558a5"
     d="m 624,1557 c 161.28185,0.7746 359.39157,139.8013 459.6423,188.6786 -155.51847,28.5297 -275.98253,-76.5646 -424.41801,-109.8373 -136.42648,-58.8716 -229.23251,147.6362 -346.6805,83.4052 C 348.83837,1597.4771 516.02962,1572.2465 624,1557 Z"
     id="path6" />
  <path
     fill="#0670ac"
     d="m 1331,846 c 131.7334,61.99529 261.6784,149.44468 212.9322,316.098 -86.435,112.8979 -106.3675,-202.45783 -86.3704,-149.0383 -73.7319,-93.83685 -132.1652,-46.92759 -101.5618,59.5516 -12.6355,52.7931 32.6079,144.5042 -38.8444,158.6687 -75.7311,-81.1809 -12.8065,-260.14593 -25.4656,-374.82915 l 14.7161,-11.20266 z"
     id="path7" />
  <path
     fill="#f5e08a"
     d="M 625,364 C 749.98403,376.73207 487.23762,351.97894 470.54054,431.18252 419.57117,465.06563 576.79909,336.01251 625,364 Z"
     id="path8" />
  <path
     fill="#f8e898"
     d="M 773,890 C 713.79559,959.73088 400.61826,892.81105 618.18535,921.55795 671.27017,922.17679 724.21963,910.71154 773,890 Z"
     id="path9" />
  <path
     fill="#f5e28b"
     d="M 865,694 C 878.08949,785.10566 568.41811,885.49562 738.49616,820.08182 792.98808,793.42341 837.72934,748.05467 865,694 Z"
     id="path10" />
  <path
     fill="#f6e48d"
     d="M 444,283 C 383.38368,322.9388 273.41472,462.45304 376.42665,336.50214 396.58544,315.93062 419.25376,297.7676 444,283 Z"
     id="path11" />
  <path
     fill="#f4de85"
     d="m 605,233 c 69.48719,-13.85576 253.58685,64.87173 91.59966,11.80076 C 692.97468,237.21862 531.47073,236.07181 605,233 Z"
     id="path12" />
  <path
     fill="#f4df7f"
     d="m 880,497 c 36.68967,51.06884 -9.88101,224.98632 11.0654,76.23948 C 890.28535,547.49862 885.88265,522.016 880,497 Z"
     id="path13" />
  <path
     fill="#f4de80"
     d="m 366,499 c -20.57596,54.95058 6.04874,218.72398 -13.98499,76.43983 C 351.73028,549.40701 355.83474,523.08843 366,499 Z"
     id="path14" />
  <path
     fill="#f0da79"
     d="m 497,899 c 56.40845,23.73714 208.36436,27.33115 67.9329,21.32736 C 541.47955,916.30793 518.42362,909.4465 497,899 Z"
     id="path15" />
  <path
     fill="#f8e794"
     d="m 455,369 c -41.72763,49.00253 -92.72571,106.57253 -20.36413,17.13319 z"
     id="path16" />
  <path
     fill="#f9ea99"
     d="m 527,388 c -53.79376,43.00886 -109.70777,92.49659 -22.26693,12.53856 z"
     id="path17" />
  <path
     fill="#f2de85"
     d="m 963,517 c 21.58714,60.94924 -13.99605,197.70728 5.3578,62.62057 C 968.36722,558.63986 966.30338,537.70208 963,517 Z"
     id="path18" />
</svg>
