<svg xmlns="http://www.w3.org/2000/svg" viewBox="0 0 340 120">
  <!-- SUEWS Logo with Text - For DARK MODE (white text visible on dark backgrounds) -->
  <circle cx="60" cy="60" r="56" fill="#2D3142"/>
  <circle cx="83" cy="51" r="13" fill="#F7B538"/>
  <circle cx="83" cy="51" r="8" fill="#E85D04"/>
  <!-- Building 1 -->
  <rect x="20" y="54" width="14" height="32" rx="2" fill="#5D5852"/>
  <!-- Tree (vegetation) -->
  <path d="M47 52 L39 79 Q37 82 40 82 L58 82 Q61 82 59 79 L51 52 Q49 50 47 52 Z" fill="#4A7C59"/>
  <rect x="45" y="82" width="8" height="4" rx="1" fill="#3D6B4A"/>
  <!-- Buildings 2 & 3 -->
  <rect x="62" y="46" width="14" height="40" rx="2" fill="#5D5852"/>
  <rect x="80" y="58" width="14" height="28" rx="2" fill="#5D5852"/>
  <path d="M18 94 Q40 86 60 94 Q80 102 102 94" stroke="#0077B6" stroke-width="4" stroke-linecap="round" fill="none"/>
  <text x="136" y="72" font-family="Inter, SF Pro Display, Segoe UI, system-ui, sans-serif" font-weight="600" font-size="48" fill="#FFFFFF" letter-spacing="-0.02em">SUEWS</text>
</svg>
